<?xml version="1.0" encoding="utf-8"?>
<!-- Generator: Adobe Illustrator 26.3.1, SVG Export Plug-In . SVG Version: 6.00 Build 0)  -->
<svg version="1.1" id="Layer_1" xmlns="http://www.w3.org/2000/svg" xmlns:xlink="http://www.w3.org/1999/xlink" x="0px" y="0px"
	 viewBox="0 0 512 512" style="enable-background:new 0 0 512 512;" xml:space="preserve">
<style type="text/css">
	.st0{fill:#F72E12;}
	.st1{fill:#B51E39;}
	.st2{fill:#FC870B;}
	.st3{fill:#FA690E;}
	.st4{fill:#FDA409;}
	.st5{fill:#FFF3AD;}
	.st6{fill:#FFE376;}
	.st7{fill:#FFFFFF;}
	.st8{fill:#F8513A;}
</style>
<path class="st0" d="M502.9,188C473.1,79.6,373.9,0,256,0C114.6,0,0,114.6,0,256c0,117.9,79.6,217.1,188,246.9L502.9,188z"/>
<path class="st1" d="M512,256c0-23.5-3.2-46.3-9.1-68l-89.5-89.5L98.6,413.4l89.5,89.5c21.6,5.9,44.4,9.1,68,9.1
	C397.4,512,512,397.4,512,256z"/>
<path class="st2" d="M448.8,144.7h-51.2v222.6h51.2c18.9-32.7,29.8-70.8,29.8-111.3S467.8,177.4,448.8,144.7z"/>
<g>
	<path class="st3" d="M256,33.4L233.7,89l186.2,72.3l28.9-16.7C410.3,78.2,338.4,33.4,256,33.4z"/>
	<path class="st3" d="M419.9,350.6L233.7,423l22.3,55.7c82.4,0,154.3-44.8,192.8-111.3L419.9,350.6z"/>
</g>
<path class="st4" d="M63.2,144.7C44.2,177.4,33.4,215.4,33.4,256s10.8,78.6,29.8,111.3h40.1V144.7H63.2z"/>
<g>
	<path class="st2" d="M63.2,144.7l28.9,16.7L256,66.8V33.4C173.6,33.4,101.7,78.2,63.2,144.7z"/>
	<path class="st2" d="M92.1,350.6l-28.9,16.7c38.5,66.5,110.4,111.3,192.8,111.3v-33.4L92.1,350.6z"/>
</g>
<g>
	<path class="st5" d="M92.1,350.6C76,322.8,66.8,290.5,66.8,256s9.2-66.8,25.3-94.6h55.7L256,256l-108.2,94.6H92.1z"/>
	<path class="st5" d="M419.9,350.6c16.1-27.8,25.3-60.1,25.3-94.6s-9.2-66.8-25.3-94.6h-55.7L256,256l108.2,94.6H419.9z"/>
</g>
<g>
	<path class="st6" d="M256,445.2c70,0,131.2-38,163.9-94.6L256,256l-22.3,98L256,445.2z"/>
	<path class="st6" d="M256,66.8l-22.3,94.6L256,256l163.9-94.6C387.2,104.8,326,66.8,256,66.8z"/>
</g>
<g>
	<path class="st7" d="M256,66.8c-70,0-131.2,38-163.9,94.6L256,256V66.8z"/>
	<path class="st7" d="M92.1,350.6c32.7,56.5,93.9,94.6,163.9,94.6V256L92.1,350.6z"/>
</g>
<g>
	<circle class="st0" cx="325.6" cy="376.5" r="27.8"/>
	<circle class="st0" cx="395.1" cy="256" r="27.8"/>
	<circle class="st0" cx="325.6" cy="135.5" r="27.8"/>
</g>
<g>
	<circle class="st8" cx="186.4" cy="135.5" r="27.8"/>
	<circle class="st8" cx="116.9" cy="256" r="27.8"/>
	<circle class="st8" cx="186.4" cy="376.5" r="27.8"/>
</g>
<g>
	<ellipse class="st8" cx="327.4" cy="135.5" rx="30.1" ry="27.8"/>
	<ellipse class="st8" cx="252.1" cy="256" rx="30.1" ry="27.8"/>
	<ellipse class="st8" cx="327.4" cy="376.5" rx="30.1" ry="27.8"/>
</g>
</svg>
